<svg width="165" height="36" viewBox="0 0 165 36" fill="none" xmlns="http://www.w3.org/2000/svg">
<path d="M69.8086 12.5884C67.6272 11.509 65.3442 10.8396 62.8938 10.6061V27.9208H58.529V10.6061C56.0787 10.8396 53.7618 11.509 51.5804 12.5884L50.0703 9.67375C53.2598 8.01146 56.9532 7.22443 60.6786 7.22443C64.4039 7.22443 68.1313 8.01146 71.3207 9.67375L69.8106 12.5884H69.8086Z" fill="#221E5D"/>
<path d="M70.4805 20.1401C70.4805 15.4767 74.5086 12.1816 80.0149 12.1816C85.5213 12.1816 89.5833 15.475 89.5833 20.1401C89.5833 24.8053 85.589 28.1264 80.0149 28.1264C74.4409 28.1264 70.4805 24.8035 70.4805 20.1401ZM85.352 20.1401C85.352 17.1667 83.0689 15.2726 80.0149 15.2726C76.961 15.2726 74.7098 17.1667 74.7098 20.1401C74.7098 23.1136 76.9928 25.0077 80.0149 25.0077C83.0371 25.0077 85.352 23.1136 85.352 20.1401Z" fill="#221E5D"/>
<path d="M103.684 27.0754C102.678 27.7742 101.166 28.1253 99.6562 28.1253C95.7277 28.1253 93.4785 26.3177 93.4785 22.879V8.9165H97.674V12.4729H102.475V15.3875H97.674V22.7925C97.674 24.3078 98.5804 25.1242 100.158 25.1242C101.031 25.1242 101.869 24.9201 102.509 24.4825L103.684 27.0771V27.0754Z" fill="#221E5D"/>
<path d="M124.06 12.3563V27.9223H120.066V25.9106C118.655 27.3964 116.573 28.1264 114.123 28.1264C108.886 28.1264 105.059 24.9782 105.059 20.1401C105.059 15.302 108.886 12.1816 114.123 12.1816C116.406 12.1816 118.42 12.8527 119.864 14.2521V12.358H124.06V12.3563ZM119.93 20.1401C119.93 17.1667 117.647 15.2726 114.591 15.2726C111.535 15.2726 109.286 17.1667 109.286 20.1401C109.286 23.1136 111.569 25.0077 114.591 25.0077C117.613 25.0077 119.93 23.1136 119.93 20.1401Z" fill="#221E5D"/>
<path d="M129.564 23.0533V7.22443H133.762V22.7904C133.762 24.3057 134.601 25.1221 136.28 25.1221C136.85 25.1221 137.455 24.9768 137.79 24.8315L137.991 27.7461C137.186 28.0091 136.312 28.125 135.473 28.125C131.746 28.125 129.564 26.288 129.564 23.0533Z" fill="#221E5D"/>
<path d="M140.609 9.20326C140.609 8.09622 141.641 7.22443 143.04 7.22443C144.438 7.22443 145.47 8.0426 145.47 9.12369C145.47 10.2843 144.468 11.1804 143.04 11.1804C141.611 11.1804 140.609 10.3103 140.609 9.20152V9.20326ZM140.842 12.3549H145.04V27.9208H140.842V12.3549Z" fill="#221E5D"/>
<path d="M148.5 26.3776L150.112 23.6083C151.689 24.5112 154.106 25.1529 156.357 25.1529C159.009 25.1529 160.116 24.5112 160.116 23.4336C160.116 20.4601 149.038 23.2589 149.038 17.0491C149.038 14.1051 152.094 12.1816 156.927 12.1816C159.309 12.1816 162.031 12.678 163.64 13.5221L162.029 16.2915C160.318 15.4162 158.604 15.1256 156.893 15.1256C154.341 15.1256 153.132 15.8538 153.132 16.8744C153.132 20.0225 164.21 17.2238 164.21 23.316C164.21 26.2306 161.122 28.1264 156.086 28.1264C153.098 28.1264 150.11 27.3688 148.498 26.3776H148.5Z" fill="#221E5D"/>
<path d="M23.5795 26.003C22.092 25.8818 20.5979 25.8444 19.1071 25.8819C16.5206 25.9539 13.9408 26.274 11.4207 26.8391C8.5022 27.4908 5.67002 28.4683 3.00054 29.7744C2.97397 29.7168 0.17832 24.3277 0.148438 24.27C4.0597 22.2516 8.40591 20.8907 12.9049 20.19C15.2921 19.8152 17.7192 19.6278 20.1463 19.6249C20.9332 19.6249 21.7268 19.6422 22.5137 19.6825C22.6498 21.8134 23.0018 23.9356 23.5795 26.003Z" fill="#7867AE"/>
<path d="M40.2685 24.2639C40.2386 24.3273 37.4429 29.7078 37.413 29.7683C35.5072 28.8283 33.5184 28.0585 31.4665 27.4587C28.9032 26.7062 26.2537 26.2189 23.5775 25.9997C22.9998 23.9323 22.6478 21.8102 22.5117 19.6793C24.9654 19.7975 27.4091 20.1089 29.7897 20.6049C33.4752 21.3747 37.0212 22.5944 40.2651 24.2668L40.2685 24.2639Z" fill="#7867AE"/>
<path d="M11.4207 26.8284C13.9374 26.2633 16.5172 25.9461 19.107 25.8712C18.2272 29.1121 16.8127 32.2377 14.8638 35.0923C14.7907 35.0634 8.59512 32.6385 8.52539 32.6125C9.73728 30.7643 10.7002 28.8209 11.4207 26.8256V26.8284Z" fill="#EC688E"/>
<path d="M20.1463 19.6161C17.7192 19.619 15.2921 19.8064 12.9048 20.1812C13.0609 18.5146 13.0575 16.8365 12.8982 15.1699C12.6857 12.9208 12.1876 10.6891 11.4007 8.52078C10.6835 6.52258 9.724 4.58205 8.52539 2.7338C8.5918 2.71073 14.7974 0.282909 14.8638 0.256958C16.8194 3.11152 18.2371 6.23424 19.117 9.47518C19.6748 11.5253 20.0201 13.6215 20.1463 15.7322C20.2293 17.0239 20.2293 18.3214 20.1463 19.6161Z" fill="#EC688E"/>
<path d="M31.4733 27.4503C32.1639 29.2293 33.0504 30.9565 34.1328 32.6145C34.0631 32.6375 27.8675 35.0625 27.7944 35.0942C25.872 32.2742 24.4642 29.1919 23.581 25.9942C23.0033 23.9268 22.6513 21.8046 22.5152 19.6738C22.4289 18.3416 22.4256 17.0037 22.5152 15.6745C22.648 13.5437 23 11.4215 23.5744 9.35407C24.4576 6.1535 25.862 3.07404 27.7944 0.256958C27.8608 0.280025 34.0664 2.70784 34.1328 2.7338C33.0604 4.38887 32.1772 6.12179 31.4899 7.89796C30.6266 10.1268 30.0622 12.4278 29.8065 14.7489C29.5874 16.6952 29.584 18.6559 29.7965 20.6022C30.0489 22.9262 30.6067 25.2301 31.4733 27.4561V27.4503Z" fill="#83D2E1"/>
<path d="M11.3975 8.5136C12.181 10.6819 12.6824 12.9137 12.8949 15.1627C8.4026 14.462 4.05638 13.104 0.148438 11.0856C0.175 11.0279 2.97065 5.63884 3.00054 5.58118C5.66338 6.88447 8.49225 7.86195 11.4008 8.51071L11.3975 8.5136Z" fill="#E2E426"/>
<path d="M40.2647 11.0895C34.2384 14.1892 27.1862 15.7376 20.1406 15.7318C20.0144 13.6212 19.6725 11.5249 19.1113 9.47484C25.4265 9.65072 31.7847 8.36184 37.4093 5.58801C37.4358 5.64856 40.2315 11.029 40.2647 11.0924V11.0895Z" fill="#E2E426"/>
</svg>
