<svg width="99" height="17" viewBox="0 0 99 17" fill="none" xmlns="http://www.w3.org/2000/svg">
<path d="M35.6294 4.60589C34.1794 3.77968 32.662 3.26727 31.0333 3.08852V16.3423H28.1321V3.08852C26.5034 3.26727 24.9634 3.77968 23.5135 4.60589L22.5098 2.37486C24.6297 1.10244 27.0847 0.5 29.5608 0.5C32.037 0.5 34.5144 1.10244 36.6344 2.37486L35.6307 4.60589H35.6294Z" fill="#F9F9FA"/>
<path d="M36.0762 10.3854C36.0762 6.81578 38.7536 4.29346 42.4135 4.29346C46.0734 4.29346 48.7734 6.81446 48.7734 10.3854C48.7734 13.9564 46.1185 16.4986 42.4135 16.4986C38.7086 16.4986 36.0762 13.9551 36.0762 10.3854ZM45.9609 10.3854C45.9609 8.10938 44.4434 6.65954 42.4135 6.65954C40.3836 6.65954 38.8873 8.10938 38.8873 10.3854C38.8873 12.6615 40.4048 14.1113 42.4135 14.1113C44.4222 14.1113 45.9609 12.6615 45.9609 10.3854Z" fill="#F9F9FA"/>
<path d="M58.1449 15.6963C57.4762 16.2312 56.4712 16.5 55.4675 16.5C52.8563 16.5 51.3613 15.1164 51.3613 12.4841V1.79639H54.15V4.51864H57.3412V6.74967H54.15V12.4179C54.15 13.5778 54.7525 14.2028 55.8012 14.2028C56.3812 14.2028 56.9386 14.0465 57.3637 13.7115L58.1449 15.6976V15.6963Z" fill="#F9F9FA"/>
<path d="M71.6883 4.42719V16.3423H69.0334V14.8025C68.0959 15.9398 66.7121 16.4986 65.0834 16.4986C61.6023 16.4986 59.0586 14.0888 59.0586 10.3854C59.0586 6.68205 61.6023 4.29346 65.0834 4.29346C66.6009 4.29346 67.9396 4.80719 68.8996 5.87835V4.42851H71.6883V4.42719ZM68.9433 10.3854C68.9433 8.10938 67.4258 6.65954 65.3946 6.65954C63.3634 6.65954 61.8684 8.10938 61.8684 10.3854C61.8684 12.6615 63.3859 14.1113 65.3946 14.1113C67.4033 14.1113 68.9433 12.6615 68.9433 10.3854Z" fill="#F9F9FA"/>
<path d="M75.3477 12.6164V0.5H78.1376V12.4152C78.1376 13.575 78.6951 14.2 79.8113 14.2C80.19 14.2 80.5926 14.0888 80.815 13.9775L80.9488 16.2086C80.4138 16.4098 79.8325 16.4985 79.2751 16.4985C76.7976 16.4985 75.3477 15.0924 75.3477 12.6164Z" fill="#F9F9FA"/>
<path d="M82.6914 2.01472C82.6914 1.16732 83.3773 0.5 84.3069 0.5C85.2364 0.5 85.9223 1.12628 85.9223 1.95381C85.9223 2.84225 85.2563 3.52811 84.3069 3.52811C83.3575 3.52811 82.6914 2.86211 82.6914 2.01339V2.01472ZM82.8463 4.42714H85.6363V16.3423H82.8463V4.42714Z" fill="#F9F9FA"/>
<path d="M87.933 15.16L89.0042 13.0402C90.0529 13.7313 91.6591 14.2225 93.1554 14.2225C94.9178 14.2225 95.654 13.7313 95.654 12.9064C95.654 10.6304 88.2905 12.7727 88.2905 8.01934C88.2905 5.76581 90.3217 4.29346 93.5341 4.29346C95.1178 4.29346 96.9265 4.67346 97.9964 5.3196L96.9252 7.43941C95.7878 6.76944 94.649 6.547 93.5116 6.547C91.8153 6.547 91.0116 7.10442 91.0116 7.88561C91.0116 10.2954 98.3751 8.15307 98.3751 12.8164C98.3751 15.0474 96.3227 16.4986 92.9753 16.4986C90.9891 16.4986 89.0029 15.9186 87.9316 15.16H87.933Z" fill="#F9F9FA"/>
<path d="M9.34447 12.3198C8.75125 12.2642 8.15539 12.247 7.56085 12.2642C6.52934 12.2973 5.50048 12.4443 4.49546 12.7038C3.33154 13.003 2.20205 13.4519 1.13744 14.0517C1.12684 14.0252 0.0119173 11.5505 0 11.524C1.55984 10.5972 3.29314 9.97225 5.08735 9.65051C6.03941 9.47838 7.00736 9.39232 7.9753 9.39099C8.28913 9.39099 8.6056 9.39894 8.91942 9.41747C8.97371 10.3959 9.11407 11.3705 9.34447 12.3198Z" fill="#7867AE"/>
<path d="M15.9995 11.5241C15.9876 11.5532 14.8726 14.0239 14.8607 14.0517C14.1007 13.62 13.3075 13.2665 12.4892 12.9911C11.4669 12.6455 10.4103 12.4218 9.34302 12.3211C9.11262 11.3718 8.97226 10.3973 8.91797 9.41882C9.89651 9.47311 10.8711 9.6161 11.8205 9.84384C13.2903 10.1974 14.7045 10.7574 15.9982 11.5254L15.9995 11.5241Z" fill="#7867AE"/>
<path d="M4.49645 12.7039C5.50015 12.4444 6.52901 12.2987 7.56184 12.2643C7.21094 13.7525 6.64685 15.1878 5.86958 16.4986C5.84045 16.4854 3.3696 15.3718 3.3418 15.3599C3.82511 14.5112 4.20911 13.6188 4.49645 12.7025V12.7039Z" fill="#EC688E"/>
<path d="M7.97434 9.39116C7.00639 9.39248 6.03845 9.47855 5.08639 9.65067C5.14862 8.88537 5.1473 8.11477 5.08374 7.34947C4.99899 6.31671 4.80037 5.29189 4.48655 4.2962C4.20053 3.37863 3.81786 2.48754 3.33984 1.63883C3.36633 1.62823 5.84115 0.513381 5.86763 0.501465C6.64755 1.81228 7.21296 3.24623 7.56386 4.73446C7.78631 5.67587 7.92402 6.63845 7.97434 7.60766C8.00744 8.20084 8.00744 8.79666 7.97434 9.39116Z" fill="#EC688E"/>
<path d="M12.4914 12.9898C12.7669 13.8068 13.1204 14.5999 13.5521 15.3612C13.5243 15.3718 11.0534 16.4853 11.0243 16.4999C10.2576 15.205 9.69617 13.7896 9.34395 12.3212C9.11355 11.3718 8.97319 10.3973 8.9189 9.41886C8.88447 8.80715 8.88315 8.19279 8.9189 7.5824C8.97186 6.60393 9.11222 5.62942 9.3413 4.68007C9.69352 3.21037 10.2536 1.79629 11.0243 0.502686C11.0508 0.513278 13.5256 1.62813 13.5521 1.64005C13.1244 2.40005 12.7722 3.19581 12.4981 4.01143C12.1538 5.03492 11.9287 6.09152 11.8267 7.15738C11.7393 8.05111 11.738 8.95147 11.8227 9.8452C11.9234 10.9124 12.1458 11.9703 12.4914 12.9925V12.9898Z" fill="#83D2E1"/>
<path d="M4.48815 4.29481C4.80064 5.29049 5.00059 6.31531 5.08534 7.34807C3.29377 7.02633 1.56047 6.4027 0.00195312 5.47586C0.0125463 5.44938 1.12747 2.97472 1.13939 2.94824C2.20135 3.54671 3.32952 3.99557 4.48947 4.29348L4.48815 4.29481Z" fill="#E2E426"/>
<path d="M16.0006 5.476C13.5972 6.89936 10.7848 7.61038 7.97494 7.60773C7.92462 6.63852 7.78823 5.67593 7.56445 4.73453C10.083 4.8153 12.6187 4.22345 14.8618 2.94971C14.8724 2.97751 15.9873 5.44819 16.0006 5.47732V5.476Z" fill="#E2E426"/>
</svg>
