<svg width="41" height="36" viewBox="0 0 41 36" fill="none" xmlns="http://www.w3.org/2000/svg">
<path d="M23.5795 26.003C22.092 25.8818 20.5979 25.8444 19.1071 25.8819C16.5206 25.9539 13.9408 26.274 11.4207 26.8391C8.5022 27.4908 5.67002 28.4683 3.00054 29.7744C2.97397 29.7168 0.17832 24.3277 0.148438 24.27C4.0597 22.2516 8.40591 20.8907 12.9049 20.19C15.2921 19.8152 17.7192 19.6278 20.1463 19.6249C20.9332 19.6249 21.7268 19.6422 22.5137 19.6825C22.6498 21.8134 23.0018 23.9356 23.5795 26.003Z" fill="#7867AE"/>
<path d="M40.2685 24.2639C40.2386 24.3273 37.4429 29.7078 37.413 29.7683C35.5072 28.8283 33.5184 28.0585 31.4665 27.4587C28.9032 26.7062 26.2537 26.2189 23.5775 25.9997C22.9998 23.9323 22.6478 21.8102 22.5117 19.6793C24.9654 19.7975 27.4091 20.1089 29.7897 20.6049C33.4752 21.3747 37.0212 22.5944 40.2651 24.2668L40.2685 24.2639Z" fill="#7867AE"/>
<path d="M11.4207 26.8284C13.9374 26.2633 16.5172 25.9461 19.107 25.8712C18.2272 29.1121 16.8127 32.2377 14.8638 35.0923C14.7907 35.0634 8.59512 32.6385 8.52539 32.6125C9.73728 30.7643 10.7002 28.8209 11.4207 26.8256V26.8284Z" fill="#EC688E"/>
<path d="M20.1463 19.6161C17.7192 19.619 15.2921 19.8064 12.9048 20.1812C13.0609 18.5146 13.0575 16.8365 12.8982 15.1699C12.6857 12.9208 12.1876 10.6891 11.4007 8.52078C10.6835 6.52258 9.724 4.58205 8.52539 2.7338C8.5918 2.71073 14.7974 0.282909 14.8638 0.256958C16.8194 3.11152 18.2371 6.23424 19.117 9.47518C19.6748 11.5253 20.0201 13.6215 20.1463 15.7322C20.2293 17.0239 20.2293 18.3214 20.1463 19.6161Z" fill="#EC688E"/>
<path d="M31.4733 27.4503C32.1639 29.2293 33.0504 30.9565 34.1328 32.6145C34.0631 32.6375 27.8675 35.0625 27.7944 35.0942C25.872 32.2742 24.4642 29.1919 23.581 25.9942C23.0033 23.9268 22.6513 21.8046 22.5152 19.6738C22.4289 18.3416 22.4256 17.0037 22.5152 15.6745C22.648 13.5437 23 11.4215 23.5744 9.35407C24.4576 6.1535 25.862 3.07404 27.7944 0.256958C27.8608 0.280025 34.0664 2.70784 34.1328 2.7338C33.0604 4.38887 32.1772 6.12179 31.4899 7.89796C30.6266 10.1268 30.0622 12.4278 29.8065 14.7489C29.5874 16.6952 29.584 18.6559 29.7965 20.6022C30.0489 22.9262 30.6067 25.2301 31.4733 27.4561V27.4503Z" fill="#83D2E1"/>
<path d="M11.3975 8.5136C12.181 10.6819 12.6824 12.9137 12.8949 15.1627C8.4026 14.462 4.05638 13.104 0.148438 11.0856C0.175 11.0279 2.97065 5.63884 3.00054 5.58118C5.66338 6.88447 8.49225 7.86195 11.4008 8.51071L11.3975 8.5136Z" fill="#E2E426"/>
<path d="M40.2647 11.0895C34.2384 14.1892 27.1862 15.7376 20.1406 15.7318C20.0144 13.6212 19.6725 11.5249 19.1113 9.47484C25.4265 9.65072 31.7847 8.36184 37.4093 5.58801C37.4358 5.64856 40.2315 11.029 40.2647 11.0924V11.0895Z" fill="#E2E426"/>
</svg>
